<?xml version="1.0" encoding="utf-8"?>
<!-- Generator: Adobe Illustrator 16.0.0, SVG Export Plug-In . SVG Version: 6.00 Build 0)  -->
<!DOCTYPE svg PUBLIC "-//W3C//DTD SVG 1.1//EN" "http://www.w3.org/Graphics/SVG/1.1/DTD/svg11.dtd">
<svg version="1.1" id="Ebene_1" xmlns="http://www.w3.org/2000/svg" xmlns:xlink="http://www.w3.org/1999/xlink" x="0px" y="0px"
	 width="1792px" height="1792px" viewBox="0 0 1792 1792" enable-background="new 0 0 1792 1792" xml:space="preserve">
<path fill="none" stroke="#878787" stroke-width="25" stroke-miterlimit="10" d="M372.923,834.493
	c0-15.866-5.614-29.413-16.84-40.64c-11.227-11.227-24.773-16.84-40.64-16.84c-15.867,0-29.414,5.613-40.64,16.84
	c-11.227,11.227-16.84,24.773-16.84,40.64c0,15.868,5.614,29.414,16.84,40.641c11.227,11.226,24.773,16.838,40.64,16.838
	c15.867,0,29.414-5.613,40.64-16.838C367.309,863.907,372.923,850.361,372.923,834.493z M487.883,810.02v49.846
	c0,1.796-0.599,3.517-1.796,5.164s-2.694,2.619-4.491,2.919l-41.538,6.287c-2.844,8.083-5.763,14.894-8.757,20.432
	c5.239,7.484,13.248,17.813,24.025,30.985c1.497,1.796,2.246,3.667,2.246,5.613s-0.674,3.668-2.021,5.163
	c-4.042,5.541-11.451,13.623-22.229,24.252c-10.777,10.627-17.813,15.941-21.106,15.941c-1.796,0-3.742-0.674-5.837-2.021
	l-30.985-24.25c-6.586,3.443-13.397,6.287-20.433,8.533c-2.396,20.357-4.565,34.277-6.511,41.762
	c-1.048,4.191-3.742,6.287-8.083,6.287h-49.846c-2.096,0-3.929-0.635-5.5-1.908c-1.572-1.271-2.433-2.881-2.583-4.828l-6.287-41.313
	c-7.335-2.396-14.071-5.164-20.208-8.309l-31.659,24.025c-1.497,1.348-3.368,2.021-5.613,2.021c-2.096,0-3.967-0.824-5.614-2.471
	c-18.86-17.064-31.21-29.639-37.047-37.723c-1.048-1.495-1.572-3.217-1.572-5.163c0-1.797,0.599-3.517,1.797-5.164
	c2.245-3.143,6.062-8.12,11.451-14.931c5.389-6.812,9.431-12.088,12.125-15.83c-4.042-7.485-7.11-14.895-9.206-22.229l-41.089-6.063
	c-1.947-0.299-3.518-1.235-4.715-2.807c-1.198-1.572-1.796-3.332-1.796-5.276v-49.846c0-1.796,0.599-3.518,1.796-5.165
	c1.197-1.646,2.619-2.62,4.266-2.919l41.763-6.287c2.096-6.886,5.015-13.771,8.757-20.657c-5.988-8.532-13.996-18.86-24.025-30.985
	c-1.497-1.796-2.246-3.592-2.246-5.389c0-1.497,0.674-3.218,2.021-5.164c3.892-5.389,11.264-13.435,22.117-24.138
	c10.852-10.702,17.925-16.054,21.218-16.054c1.945,0,3.892,0.749,5.837,2.246l30.985,24.025c6.586-3.443,13.397-6.287,20.433-8.533
	c2.395-20.357,4.565-34.278,6.511-41.763c1.048-4.191,3.742-6.287,8.083-6.287h49.846c2.096,0,3.929,0.636,5.501,1.909
	c1.572,1.272,2.433,2.881,2.583,4.827l6.287,41.313c7.334,2.396,14.071,5.165,20.208,8.308l31.884-24.025
	c1.347-1.347,3.143-2.021,5.388-2.021c1.946,0,3.817,0.749,5.614,2.246c19.31,17.813,31.659,30.536,37.047,38.17
	c1.048,1.197,1.572,2.844,1.572,4.939c0,1.796-0.599,3.518-1.797,5.164c-2.245,3.144-6.062,8.121-11.451,14.932
	s-9.431,12.087-12.125,15.83c3.892,7.484,6.961,14.819,9.206,22.004l41.089,6.287c1.946,0.299,3.518,1.235,4.715,2.807
	C487.283,806.315,487.883,808.074,487.883,810.02z"/>
<g>
	<path fill="#5C96BC" stroke="#5C96BC" stroke-width="21" stroke-miterlimit="10" d="M464.009,824.614v21.075h-61.494v187.946
		h-23.673V845.689h-59.184v-21.075H464.009z"/>
	<path fill="#5C96BC" stroke="#5C96BC" stroke-width="21" stroke-miterlimit="10" d="M490.571,824.903l51.678,101.912
		l52.544-102.201h17.611v209.021h-22.23V876.004l-45.038,84.013h-8.95l-42.15-82.858v156.478h-21.942V824.903H490.571z"/>
	<path stroke="#000000" stroke-width="21" stroke-miterlimit="10" d="M776.373,824.614v20.498h-96.427v65.536h77.95v20.209h-77.95
		v102.489h-23.673V824.614H776.373z"/>
	<path stroke="#000000" stroke-width="21" stroke-miterlimit="10" d="M894.27,880.334v133.67h35.799v19.343h-99.025v-19.343h38.976
		V899.966h-36.954v-19.632H894.27z M900.049,831.112c0,9.46-7.748,17.179-17.331,17.179c-9.576,0-17.324-7.716-17.324-17.177
		c0-9.463,7.749-17.182,17.328-17.182C892.298,813.933,900.049,821.646,900.049,831.112z"/>
	<path stroke="#000000" stroke-width="21" stroke-miterlimit="10" d="M1088.958,810.757h25.695c0.123,2.276-1.146,3.938-1.836,5.005
		c-1.191,1.843-1.343,2.778-1.34,4.522l0.288,198.916c0.007,4.626,0.238,9.467,1.444,14.146h-23.963
		c-1.225-3.709-1.443-7.628-1.443-11.26v-13.28c-9.599,17.154-27.658,27.93-47.202,27.93c-29.543,0-60.772-24.658-60.772-81.076
		c0-58.41,35.178-79.104,64.31-79.104c21.119,0,37.473,10.589,44.819,26.298V810.757z M1003.178,951.722
		c0,50.34,25.712,63.78,43.016,63.78c15.939,0,31.757-10.655,37.644-28.986c2.478-7.718,3.185-16.283,3.185-27.807
		c0-17.061-0.675-25.591-2.569-32.698c-6.048-22.69-25.792-29.81-39.192-29.81C1027.675,896.201,1003.178,908.212,1003.178,951.722z
		"/>
	<path stroke="#000000" stroke-width="21" stroke-miterlimit="10" d="M1256.221,810.757h25.695c0.123,2.276-1.146,3.938-1.836,5.005
		c-1.191,1.843-1.343,2.778-1.34,4.522l0.288,198.916c0.007,4.626,0.238,9.467,1.444,14.146h-23.963
		c-1.225-3.709-1.443-7.628-1.443-11.26v-13.28c-9.599,17.154-27.658,27.93-47.202,27.93c-29.543,0-60.773-24.658-60.773-81.076
		c0-58.41,35.179-79.104,64.311-79.104c21.119,0,37.473,10.589,44.819,26.298V810.757z M1170.441,951.722
		c0,50.34,25.712,63.78,43.016,63.78c15.939,0,31.757-10.655,37.644-28.986c2.478-7.718,3.185-16.283,3.185-27.807
		c0-17.061-0.675-25.591-2.569-32.698c-6.048-22.69-25.792-29.81-39.192-29.81C1194.938,896.201,1170.441,908.212,1170.441,951.722z
		"/>
	<path stroke="#000000" stroke-width="21" stroke-miterlimit="10" d="M1395.193,811.046v202.958h45.037v19.343h-114.614v-19.343
		h45.326V830.389h-43.306v-19.343H1395.193z"/>
	<path stroke="#000000" stroke-width="21" stroke-miterlimit="10" d="M1613.652,931.116c1.501,8.872,1.986,18.688,1.06,29.188
		h-108.466c1.818,45.764,31.42,57.036,51.866,57.036c15.196,0,29.604-6.039,39.566-17.195l13.28,12.992
		c-13.086,15.732-32.899,23.715-54.713,23.715c-41.512,0-73.385-27.245-73.385-78.168c0-55.79,33.767-81.894,70.27-81.894
		C1578.187,876.791,1606.71,890.087,1613.652,931.116z M1591.037,941.828c2.87-24.782-14.816-46.53-39.586-46.53
		c-16.401,0-39.664,10.485-44.424,46.53H1591.037z"/>
</g>
</svg>
