<?xml version="1.0" encoding="utf-8"?>
<!-- Generator: Adobe Illustrator 16.0.0, SVG Export Plug-In . SVG Version: 6.00 Build 0)  -->
<!DOCTYPE svg PUBLIC "-//W3C//DTD SVG 1.1//EN" "http://www.w3.org/Graphics/SVG/1.1/DTD/svg11.dtd">
<svg version="1.1" id="Ebene_1" xmlns="http://www.w3.org/2000/svg" xmlns:xlink="http://www.w3.org/1999/xlink" x="0px" y="0px"
	 width="283.46px" height="283.46px" viewBox="0 0 283.46 283.46" enable-background="new 0 0 283.46 283.46" xml:space="preserve">
<path fill="none" stroke="#878787" stroke-width="25" stroke-miterlimit="10" d="M178.545,141.734
	c0-10.162-3.596-18.838-10.785-26.028c-7.19-7.19-15.866-10.786-26.028-10.786c-10.163,0-18.839,3.596-26.028,10.786
	c-7.19,7.19-10.785,15.866-10.785,26.028c0,10.163,3.596,18.839,10.785,26.028c7.19,7.191,15.866,10.785,26.028,10.785
	c10.162,0,18.839-3.596,26.028-10.785S178.545,151.897,178.545,141.734z M252.173,126.061v31.925c0,1.15-0.385,2.252-1.15,3.307
	c-0.767,1.055-1.726,1.678-2.877,1.869l-26.604,4.027c-1.821,5.178-3.69,9.539-5.608,13.086c3.355,4.793,8.485,11.408,15.387,19.846
	c0.959,1.148,1.438,2.348,1.438,3.594s-0.432,2.35-1.294,3.307c-2.589,3.549-7.334,8.725-14.237,15.533
	c-6.901,6.805-11.408,10.209-13.517,10.209c-1.15,0-2.396-0.432-3.738-1.295l-19.846-15.531c-4.217,2.205-8.58,4.027-13.086,5.465
	c-1.535,13.039-2.924,21.953-4.17,26.748c-0.672,2.684-2.396,4.025-5.178,4.025H125.77c-1.342,0-2.517-0.406-3.523-1.221
	s-1.558-1.846-1.654-3.092l-4.026-26.461c-4.698-1.533-9.012-3.307-12.942-5.32l-20.276,15.387
	c-0.959,0.863-2.157,1.295-3.595,1.295c-1.342,0-2.541-0.529-3.596-1.584c-12.079-10.928-19.989-18.982-23.727-24.16
	c-0.671-0.957-1.007-2.061-1.007-3.307c0-1.15,0.384-2.252,1.151-3.307c1.438-2.014,3.883-5.201,7.334-9.563
	c3.452-4.363,6.041-7.742,7.766-10.139c-2.589-4.795-4.553-9.539-5.896-14.236l-26.316-3.883c-1.247-0.191-2.253-0.793-3.02-1.799
	c-0.768-1.006-1.15-2.133-1.15-3.379v-31.925c0-1.15,0.383-2.253,1.15-3.308c0.767-1.055,1.677-1.679,2.732-1.87l26.748-4.026
	c1.342-4.41,3.212-8.82,5.608-13.229c-3.835-5.465-8.964-12.08-15.387-19.846c-0.958-1.149-1.438-2.3-1.438-3.451
	c0-0.959,0.432-2.061,1.295-3.308c2.492-3.451,7.214-8.604,14.165-15.459c6.95-6.854,11.48-10.282,13.589-10.282
	c1.246,0,2.493,0.479,3.739,1.438l19.845,15.387c4.218-2.205,8.58-4.027,13.086-5.465c1.535-13.038,2.924-21.953,4.17-26.747
	c0.671-2.685,2.397-4.027,5.177-4.027h31.923c1.344,0,2.518,0.407,3.523,1.223c1.008,0.814,1.559,1.845,1.654,3.092l4.027,26.459
	c4.697,1.535,9.012,3.308,12.941,5.321l20.422-15.387c0.862-0.863,2.012-1.294,3.45-1.294c1.247,0,2.444,0.48,3.596,1.438
	c12.367,11.409,20.275,19.557,23.728,24.446c0.671,0.767,1.006,1.822,1.006,3.164c0,1.15-0.384,2.253-1.15,3.308
	c-1.438,2.014-3.883,5.201-7.334,9.563c-3.451,4.363-6.04,7.741-7.766,10.139c2.492,4.794,4.458,9.491,5.896,14.093l26.316,4.026
	c1.246,0.191,2.253,0.792,3.02,1.799C251.788,123.688,252.173,124.814,252.173,126.061z"/>
</svg>
