<?xml version="1.0" standalone="no"?>
<!DOCTYPE svg PUBLIC "-//W3C//DTD SVG 20010904//EN"
 "http://www.w3.org/TR/2001/REC-SVG-20010904/DTD/svg10.dtd">
<svg version="1.0" xmlns="http://www.w3.org/2000/svg"
 width="700.000000pt" height="700.000000pt" viewBox="0 0 700.000000 700.000000"
 preserveAspectRatio="xMidYMid meet">
<metadata>
Created by potrace 1.11, written by Peter Selinger 2001-2013
</metadata>
<g transform="translate(0.000000,700.000000) scale(0.100000,-0.100000)"
fill="#000000" stroke="none">
<path d="M3067 6534 c-1 -1 -24 -5 -51 -8 -54 -5 -180 -66 -209 -99 -10 -12
-30 -35 -44 -51 -28 -32 -71 -120 -85 -175 -25 -101 -27 -115 -54 -286 -20
-130 -21 -140 -23 -182 0 -18 -5 -33 -10 -33 -5 0 -91 63 -190 140 -196 152
-263 191 -358 209 -193 36 -342 -51 -696 -409 -292 -295 -372 -406 -397 -545
-10 -60 -10 -82 4 -147 19 -93 49 -143 191 -318 144 -179 168 -210 163 -215
-5 -5 -81 -20 -148 -30 -25 -3 -56 -8 -70 -10 -14 -2 -45 -7 -70 -10 -146 -20
-239 -39 -295 -61 -119 -48 -227 -185 -250 -319 -15 -87 -12 -937 4 -993 27
-95 128 -225 207 -265 42 -21 123 -46 169 -52 218 -27 439 -65 446 -77 14 -22
27 -2 -163 -249 -53 -69 -110 -150 -127 -180 -71 -130 -61 -319 23 -444 50
-75 149 -187 289 -328 163 -164 358 -346 385 -361 9 -5 26 -17 38 -28 27 -24
115 -55 179 -62 78 -9 192 13 250 48 28 16 132 92 233 168 101 76 187 136 192
133 5 -3 8 -13 8 -23 -1 -14 20 -158 36 -252 3 -14 12 -70 20 -125 23 -150 42
-202 95 -265 25 -30 53 -60 61 -67 42 -34 142 -79 196 -89 61 -10 948 -12 989
-1 11 3 53 21 93 41 176 85 236 227 297 701 1 11 3 35 4 53 0 17 5 32 10 32 5
0 87 -61 181 -135 170 -135 273 -198 340 -210 110 -20 184 -12 268 27 43 20
120 69 148 93 6 6 42 36 80 67 93 77 394 384 475 483 76 94 128 173 134 206 3
13 10 48 16 78 17 85 -7 204 -58 282 -15 24 -80 109 -143 189 -64 80 -126 159
-138 177 -26 36 -25 36 63 48 52 8 67 10 125 19 19 3 51 8 70 10 19 3 46 7 60
10 14 3 61 10 105 16 44 7 107 23 140 36 121 49 227 184 250 319 13 77 14 885
1 965 -20 122 -143 272 -254 312 -49 17 -196 45 -327 62 -22 3 -51 8 -65 10
-14 3 -60 10 -102 17 -75 11 -97 26 -82 51 4 6 67 90 142 187 165 217 179 243
198 372 9 61 -13 181 -42 235 -46 84 -164 222 -340 399 -338 339 -408 394
-536 421 -40 9 -91 13 -113 10 -22 -3 -60 -8 -85 -12 -55 -8 -103 -38 -332
-210 -99 -75 -182 -133 -185 -131 -5 5 -45 250 -69 422 -3 22 -15 74 -26 115
-20 73 -27 85 -113 181 -32 35 -149 95 -205 105 -37 6 -917 14 -923 8z m673
-617 c0 -2 4 -28 10 -58 5 -30 12 -74 15 -99 3 -25 11 -74 16 -110 16 -96 17
-103 39 -253 11 -77 20 -142 20 -147 0 -4 71 -34 158 -65 153 -57 192 -73 357
-150 44 -20 90 -41 103 -46 20 -8 55 15 284 187 144 108 267 197 275 198 12 1
353 -330 353 -343 0 -7 -282 -379 -372 -492 l-29 -36 56 -119 c82 -173 108
-236 155 -364 58 -161 61 -168 74 -179 6 -5 31 -11 56 -14 25 -3 74 -10 110
-16 36 -6 83 -13 105 -16 22 -3 65 -10 95 -15 92 -16 113 -19 165 -26 28 -3
68 -9 90 -13 l40 -7 2 -241 3 -241 -46 -7 c-25 -3 -53 -8 -62 -10 -10 -1 -39
-6 -67 -9 -27 -4 -88 -13 -135 -21 -47 -8 -105 -17 -130 -20 -25 -3 -72 -10
-105 -15 -33 -6 -74 -13 -92 -16 -38 -6 -39 -8 -112 -200 -27 -73 -82 -199
-121 -280 -39 -82 -72 -152 -73 -155 -2 -6 268 -376 283 -389 15 -13 120 -153
120 -160 0 -8 -284 -298 -331 -338 l-25 -22 -268 209 -268 209 -117 -55 c-181
-86 -241 -113 -248 -113 -6 0 -192 -68 -255 -94 -20 -8 -28 -18 -29 -36 0 -14
-2 -34 -4 -45 -4 -20 -42 -305 -51 -375 -7 -57 -26 -185 -30 -202 -1 -5 -2
-12 -3 -17 0 -6 -99 -10 -245 -9 -241 0 -244 0 -250 22 -2 11 -14 86 -26 166
-12 80 -23 156 -25 170 -2 14 -11 70 -20 125 -8 55 -17 111 -19 125 -3 14 -5
35 -5 46 -1 18 -18 28 -103 59 -57 20 -116 43 -133 50 -16 7 -41 16 -55 20
-24 8 -48 18 -253 112 l-98 45 -77 -59 c-316 -242 -455 -344 -463 -341 -13 4
-349 339 -349 348 0 4 40 59 88 121 48 63 139 181 201 263 l114 148 -86 177
c-54 110 -105 235 -137 334 -45 138 -54 157 -73 158 -12 0 -33 2 -47 5 -29 5
-336 51 -395 59 -23 3 -52 7 -65 10 -14 3 -45 7 -70 10 -86 10 -79 -13 -78
255 0 229 1 240 19 241 10 1 22 2 27 3 4 2 30 6 57 10 28 4 61 10 75 12 14 2
43 7 65 9 37 5 202 30 367 56 64 10 68 13 77 42 41 138 163 424 240 567 19 35
19 36 -2 65 -57 81 -310 416 -346 460 -22 27 -41 53 -41 56 0 4 79 87 175 184
l175 177 38 -28 c20 -16 42 -33 48 -39 7 -5 53 -41 104 -80 50 -38 151 -116
223 -172 72 -56 133 -100 136 -99 18 11 275 131 321 150 30 13 114 45 187 71
l131 47 7 62 c4 33 9 68 10 76 2 8 6 40 9 71 4 31 8 65 10 75 2 11 7 44 10 75
4 31 8 65 10 75 2 11 7 44 11 74 9 75 14 110 21 142 l5 26 245 1 c134 0 244
-1 244 -2z"/>
<path d="M3350 4708 c-476 -50 -907 -424 -1026 -888 -85 -333 -32 -692 143
-967 123 -194 318 -365 523 -461 62 -29 202 -74 265 -86 17 -3 46 -8 65 -12
19 -3 90 -7 158 -8 345 -6 639 112 881 353 239 238 360 535 356 872 -2 139
-11 204 -46 327 -60 213 -161 379 -328 540 -133 128 -303 231 -466 282 -87 27
-88 27 -203 45 -66 11 -238 12 -322 3z m346 -640 c169 -60 311 -201 373 -372
22 -62 25 -87 25 -196 0 -109 -3 -134 -25 -196 -46 -127 -145 -249 -259 -319
-210 -128 -494 -108 -684 47 -148 121 -224 282 -224 473 0 167 52 290 178 415
134 135 251 181 445 176 76 -2 117 -9 171 -28z"/>
</g>
</svg>
